HIERARCHY
ROOT pelvis
{
  OFFSET 0 100 0
  CHANNELS 6 Xposition Yposition Zposition Zrotation Xrotation Yrotation
  JOINT pelvis_right_femur
  {
    OFFSET -10.78128 -3.44521 -0.5502486
    CHANNELS 3 Zrotation Xrotation Yrotation
    JOINT right_femur_tibia
    {
      OFFSET -0.8047443 -44.0398 -0.1307829
      CHANNELS 3 Zrotation Xrotation Yrotation
      JOINT right_tibia_foot
      {
        OFFSET 3.006224 -47.83518 -5
        CHANNELS 3 Zrotation Xrotation Yrotation
        End Site
        {
          OFFSET 0 -5 15
        }
      }
    }
  }
  JOINT pelvis_left_femur
  {
    OFFSET 10.78128 -3.44521 -0.5502486
    CHANNELS 3 Zrotation Xrotation Yrotation
    JOINT left_femur_tibia
    {
      OFFSET 0.8047443 -44.0398 -0.1307829
      CHANNELS 3 Zrotation Xrotation Yrotation
      JOINT left_tibia_foot
      {
        OFFSET -4.370144 -48.10324 -4.275266
        CHANNELS 3 Zrotation Xrotation Yrotation
        End Site
        {
          OFFSET 0 -5 15
        }
      }
    }
  }
  JOINT pelvis_spine1
  {
    OFFSET 0 6.468898 -3.129235
    CHANNELS 3 Zrotation Xrotation Yrotation
    JOINT spine1
    {
      OFFSET 0 23.15396 4.99043
      CHANNELS 3 Zrotation Xrotation Yrotation
      JOINT spine2
      {
        OFFSET 0 20.79997 -5.064912
        CHANNELS 3 Zrotation Xrotation Yrotation
        JOINT neck
        {
          OFFSET 0 14.38658 9.616178
          CHANNELS 3 Zrotation Xrotation Yrotation
          End Site
          {
            OFFSET 0 20 0
          }
        }
      }
      JOINT right_manubrium
      {
        OFFSET -5.722621 16.35077 3.967754
        CHANNELS 3 Zrotation Xrotation Yrotation
        JOINT right_clavicle
        {
          OFFSET -13.16364 1.694482 -4.693211
          CHANNELS 3 Zrotation Xrotation Yrotation
          JOINT right_humerus
          {
            OFFSET -28.5034 -0.3100689 -2.792744
            CHANNELS 3 Zrotation Xrotation Yrotation
            JOINT right_radius
            {
              OFFSET -25.15693 0.02248979 -1.271978
              CHANNELS 3 Zrotation Xrotation Yrotation
              End Site
              {
                OFFSET -15 0 0
              }
            }
          }
        }
      }
      JOINT left_manubrium
      {
        OFFSET 5.722621 16.35077 3.967754
        CHANNELS 3 Zrotation Xrotation Yrotation
        JOINT left_clavicle
        {
          OFFSET 13.16364 1.694482 -4.693211
          CHANNELS 3 Zrotation Xrotation Yrotation
          JOINT left_humerus
          {
            OFFSET 29.39168 -1.063119 -2.237045
            CHANNELS 3 Zrotation Xrotation Yrotation
            JOINT left_radius
            {
              OFFSET 24.59957 -0.9528479 0.9047498
              CHANNELS 3 Zrotation Xrotation Yrotation
              End Site
              {
                OFFSET 15 -0 -0
              }
            }
          }
        }
      }
    }
  }
}
MOTION
Frames: 23
Frame Time: 0.0416666666667
-122.9882 120.4715 831.2763 -26.69303 -25.51764 -46.87691 10.15181 12.07237 -7.93074 -0 34.74155 -0 -27.47437 -6.609412 -4.759038 3.57147 12.8002 -13.11445 -0 25.31586 -0 8.278422 -6.212606 14.74885 -2.121518 0.1774472 13.30243 -2.207194 8.639781 -4.706861 -3.590711 16.11326 10.04314 11.62622 -14.41172 -1.317302 0.7859235 -26.22652 7.761354 82.15096 38.44656 -4.235003 -0 0 33.31807 -13.67363 5.039728 2.368581 6.763174 -28.11044 -5.899438 -93.87284 -1.977992 42.02186 0 0 -6.976064 9.618535 2.767075 9.208381
-125.6011 120.5352 836.6235 -26.57836 -24.21984 -47.88557 10.14971 12.19678 -6.245189 -0 34.78916 -0 -25.90088 -6.986038 -5.727669 3.764302 11.75083 -12.08795 -0 24.48935 -0 9.222445 -5.157425 14.4849 -2.126268 0.1652751 13.2461 -2.1384 8.924634 -4.661928 -3.597741 16.25998 9.902028 11.55893 -14.3031 -1.407107 0.9863621 -26.3395 7.964238 82.02747 38.11575 -4.230406 -0 0 33.26257 -13.71734 4.970485 2.558297 6.480404 -27.96909 -6.319216 -94.058 -1.881565 42.18858 0 0 -6.444257 9.582341 2.714286 9.036255
-128.2632 120.639 841.9578 -26.34244 -22.9199 -48.85286 10.06212 12.42814 -4.80465 -0 34.73655 -0 -24.43858 -7.364422 -6.484317 3.892373 10.75377 -11.26389 -0 23.39775 -0 9.843147 -4.280838 14.29488 -2.131427 0.1486981 13.18779 -2.069172 9.21275 -4.616698 -3.604333 16.40519 9.760715 11.49143 -14.19348 -1.496179 1.196733 -26.45149 8.171551 81.8919 37.77984 -4.220183 -0 0 33.21486 -13.76652 4.913552 2.757766 6.202711 -27.82436 -6.735625 -94.24849 -1.786885 42.35578 0 0 -5.898876 9.547565 2.665356 8.858341
-130.9895 120.7722 847.2775 -26.05592 -21.67558 -49.80818 9.898215 12.7654 -3.6511 -0 34.6453 -0 -23.14956 -7.733252 -7.023722 3.951248 9.86987 -10.68165 -0 22.14451 -0 10.12525 -3.601978 14.19983 -2.136222 0.1282357 13.12819 -2.002337 9.490477 -4.57438 -3.609438 16.54275 9.62554 11.4261 -14.08926 -1.579185 1.405657 -26.55475 8.373715 81.75479 37.45284 -4.211197 -0 0 33.17161 -13.82083 4.872187 2.95695 5.94508 -27.68432 -7.12882 -94.43212 -1.695942 42.50679 0 0 -5.374229 9.517975 2.625632 8.676975
-133.7953 120.9278 852.5788 -25.78375 -20.53389 -50.77579 9.667565 13.21034 -2.807606 -0 34.57648 -0 -22.08679 -8.068399 -7.349115 3.936845 9.147431 -10.36858 -0 20.83775 -0 10.07024 -3.130853 14.21465 -2.140309 0.1051536 13.06834 -1.940524 9.745814 -4.537421 -3.612403 16.66756 9.501981 11.36553 -13.99556 -1.652287 1.602468 -26.64282 8.561771 81.626 37.14831 -4.209074 -0 0 33.12927 -13.87861 4.846706 3.146085 5.719079 -27.55622 -7.483472 -94.59743 -1.610722 42.62791 0 0 -4.901828 9.496505 2.597998 8.495756
-136.6956 121.1023 857.8548 -25.57834 -19.52894 -51.77213 9.379306 13.76613 -2.285541 -0 34.57707 -0 -21.29566 -8.335349 -7.46611 3.846185 8.618329 -10.34116 -0 19.57605 -0 9.691009 -2.873495 14.34747 -2.143748 0.08124112 13.00976 -1.88609 9.968759 -4.507408 -3.613028 16.77544 9.394573 11.31239 -13.91602 -1.713144 1.777889 -26.71099 8.727779 81.51369 36.87892 -4.217286 -0 0 33.08508 -13.93705 4.835086 3.316271 5.532689 -27.44604 -7.788584 -94.73474 -1.533418 42.70985 0 0 -4.507731 9.484939 2.582881 8.319853
-139.7037 121.2939 863.0938 -25.47702 -18.68166 -52.80532 9.042785 14.4346 -2.089524 -0 34.67343 -0 -20.81435 -8.493835 -7.379167 3.678783 8.297629 -10.60553 -0 18.43811 -0 9.008259 -2.835271 14.59937 -2.146893 0.05854061 12.95446 -1.84106 10.15136 -4.485149 -3.611522 16.86316 9.306926 11.26921 -13.85295 -1.760674 1.924369 -26.7564 8.865059 81.42398 36.65592 -4.236965 -0 0 33.03772 -13.99245 4.83383 3.45984 5.390697 -27.35829 -8.036764 -94.83675 -1.466467 42.748 0 0 -4.211271 9.483855 2.578706 8.155817
-142.8305 121.5009 868.2795 -25.50234 -18.00075 -53.87594 8.669195 15.21201 -2.21941 -0 34.87098 -0 -20.67247 -8.503839 -7.090666 3.438106 8.186086 -11.15697 -0 17.47732 -0 8.049492 -3.02169 14.96379 -2.150229 0.03908896 12.90478 -1.807088 10.2876 -4.470848 -3.608395 16.92822 9.241781 11.23825 -13.80759 -1.794704 2.036134 -26.77788 8.968287 81.36087 36.4888 -4.267174 -0 0 32.98746 -14.04074 4.83886 3.570555 5.295364 -27.29604 -8.223288 -94.89872 -1.412469 42.74205 0 0 -4.024846 9.492731 2.582568 8.011133
-146.0844 121.7203 873.3913 -25.66392 -17.48406 -54.97829 8.273344 16.08409 -2.669903 -0 35.1579 -0 -20.88845 -8.332189 -6.60201 3.132639 8.274216 -11.97816 -0 16.72148 -0 6.850188 -3.436756 15.42577 -2.154226 0.02470169 12.86325 -1.785446 10.37317 -4.464292 -3.60433 16.96876 9.201093 11.22129 -13.78037 -1.815623 2.109121 -26.77574 9.033513 81.32647 36.38495 -4.305334 -0 0 32.93615 -14.07792 4.846285 3.643705 5.247115 -27.26108 -8.345243 -94.91842 -1.374056 42.69522 0 0 -3.954304 9.510152 2.590923 7.893693
-149.47 121.9462 878.4055 -25.96051 -17.11992 -56.10188 7.874669 17.02136 -3.428784 -0 35.50997 -0 -21.46607 -7.959116 -5.916104 2.776314 8.546371 -13.03715 -0 16.17662 -0 5.455956 -4.079458 15.9612 -2.159224 0.01680612 12.83244 -1.777025 10.40535 -4.464991 -3.600074 16.98341 9.186103 11.21957 -13.77118 -1.824109 2.14089 -26.75144 9.058146 81.32118 36.34947 -4.347634 -0 0 32.88711 -14.1004 4.853002 3.676169 5.245104 -27.25406 -8.400878 -94.89595 -1.353755 42.61358 0 0 -3.999486 9.534034 2.600174 7.811309
-152.9892 122.1698 883.2976 -26.38191 -16.88854 -57.23293 7.496777 17.97615 -4.474649 -0 35.89474 -0 -22.39118 -7.384215 -5.040755 2.388194 8.983566 -14.28572 -0 15.83288 -0 3.924196 -4.939232 16.53705 -2.165361 0.01631602 12.81484 -1.782338 10.38295 -4.47228 -3.596343 16.9713 9.197372 11.2337 -13.7795 -1.820929 2.130583 -26.70745 9.040963 81.34377 36.385 -4.389363 -0 0 32.84494 -14.10546 4.8571 3.666501 5.287595 -27.27457 -8.389245 -94.83363 -1.353836 42.50535 0 0 -4.154738 9.561863 2.607137 7.771226
-156.6403 122.3792 888.044 -26.91055 -16.7634 -58.35608 7.165127 18.88303 -5.774704 -0 36.27399 -0 -23.62871 -6.631015 -3.992688 1.991305 9.564576 -15.65937 -0 15.67083 -0 2.324013 -5.991543 17.11296 -2.172542 0.02353938 12.81262 -1.801504 10.30632 -4.485368 -3.593743 16.93206 9.23478 11.26361 -13.80452 -1.806816 2.078933 -26.64699 8.98217 81.39151 36.49153 -4.425238 -0 0 32.81514 -14.09141 4.8581 3.615024 5.372169 -27.32132 -8.310118 -94.73574 -1.376117 42.38034 0 0 -4.409358 9.59094 2.609424 7.779576
-160.4198 122.5606 892.6257 -27.52307 -16.71313 -59.45613 6.903052 19.66411 -7.283081 -0 36.60466 -0 -25.12096 -5.748818 -2.801636 1.610537 10.26553 -17.07987 -0 15.66691 -0 0.7335689 -7.19497 17.64472 -2.180433 0.03811736 12.82749 -1.834209 10.17753 -4.503381 -3.592706 16.86601 9.297467 11.3085 -13.84516 -1.782398 1.988306 -26.57391 8.883503 81.46026 36.66616 -4.449813 -0 0 32.80362 -14.05797 4.857027 3.523917 5.495775 -27.39209 -8.164185 -94.60838 -1.421694 42.24919 0 0 -4.748101 9.618654 2.605769 7.840681
-164.3224 122.6991 897.0292 -28.19251 -16.70418 -60.52001 6.727091 20.23943 -8.940243 -0 36.83991 -0 -26.78801 -4.810089 -1.513483 1.269714 11.05892 -18.46127 -0 15.79759 -0 -0.765224 -8.491227 18.0895 -2.188489 0.05900406 12.86034 -1.87963 10.0006 -4.525401 -3.593425 16.77435 9.383739 11.36677 -13.90005 -1.748167 1.862716 -26.49238 8.748368 81.54476 36.90284 -4.45807 -0 0 32.81586 -14.00638 4.856288 3.397259 5.654667 -27.48381 -7.953471 -94.45908 -1.490581 42.12245 0 0 -5.151895 9.642772 2.596296 7.956192
-168.3425 122.7801 901.2491 -28.89127 -16.70403 -61.53856 6.643357 20.54152 -10.67431 -0 36.93216 -0 -28.53162 -3.902144 -0.1908784 0.9883654 11.91303 -19.71892 -0 16.04253 -0 -2.093883 -9.809021 18.41195 -2.196001 0.0845071 12.91096 -1.936344 9.781668 -4.550518 -3.595806 16.65952 9.490927 11.43593 -13.96752 -1.704512 1.707784 -26.40665 8.581957 81.639 37.19222 -4.446208 -0 0 32.85592 -13.93955 4.859341 3.240968 5.844262 -27.59261 -7.681967 -94.29636 -1.581303 42.00943 0 0 -5.598911 9.66173 2.582684 8.124136
-172.475 122.7908 905.2885 -29.59515 -16.68463 -62.50816 6.646816 20.53011 -12.40486 -0 36.83998 -0 -30.24371 -3.113573 1.090217 0.779175 12.79262 -20.7799 -0 16.38708 -0 -3.184797 -11.07146 18.58997 -2.20217 0.1124134 12.9777 -2.002235 9.529163 -4.577897 -3.599449 16.52543 9.61526 11.51266 -14.04557 -1.65181 1.530571 -26.32072 8.39129 81.7369 37.52158 -4.412555 -0 0 32.92528 -13.86196 4.870111 3.062596 6.058955 -27.71389 -7.356364 -94.12907 -1.690536 41.91688 0 0 -6.066036 9.674858 2.568132 8.338067
-176.7157 122.7214 909.1586 -30.28735 -16.62489 -63.43166 6.724319 20.20227 -14.04888 -0 36.53905 -0 -31.81918 -2.518356 2.248395 0.6471603 13.66086 -21.59209 -0 16.82423 -0 -3.98696 -12.20516 18.61858 -2.206206 0.1402175 13.05725 -2.074444 9.25376 -4.606828 -3.60367 16.37763 9.751787 11.59283 -14.13177 -1.59062 1.339279 -26.23796 8.185097 81.83306 37.87513 -4.358414 -0 0 33.02185 -13.77937 4.892194 2.870946 6.291922 -27.84244 -6.986769 -93.96566 -1.812918 41.84789 0 0 -6.530647 9.682487 2.557002 8.586637
-181.0613 122.5669 912.877 -30.96159 -16.51113 -64.31847 6.860273 19.59362 -15.52707 -0 36.03467 -0 -33.17009 -2.162471 3.207322 0.5910418 14.48185 -22.1287 -0 17.35543 -0 -4.468485 -13.14821 18.51057 -2.207431 0.1654461 13.14468 -2.149412 8.968094 -4.636738 -3.607597 16.22328 9.894407 11.67179 -14.22325 -1.521954 1.142816 -26.16094 7.973483 81.92342 38.23466 -4.288556 -0 0 33.13946 -13.69824 4.927925 2.675529 6.534965 -27.9727 -6.587212 -93.81342 -1.941178 41.80132 0 0 -6.972403 9.685864 2.554095 8.853909
-185.5092 122.3284 916.466 -31.62255 -16.33544 -65.18353 7.042302 18.77006 -16.76837 -0 35.37046 -0 -34.23648 -2.05741 3.905368 0.6062182 15.22273 -22.38701 -0 17.98947 -0 -4.615682 -13.85462 18.29348 -2.205394 0.1860373 13.2338 -2.223045 8.686186 -4.667134 -3.610328 16.07074 10.03608 11.74473 -14.31668 -1.447588 0.9502659 -26.09139 7.767353 82.00578 38.58075 -4.211034 -0 0 33.26812 -13.62492 4.977501 2.485927 6.778448 -28.09893 -6.175716 -93.678 -2.066677 41.77212 0 0 -7.374632 9.686853 2.563594 9.120643
-190.0562 122.0139 919.9495 -32.28274 -16.09225 -66.04509 7.264234 17.81333 -17.71174 -0 34.62794 -0 -34.98939 -2.18226 4.301045 0.6878686 15.85468 -22.3818 -0 18.73826 -0 -4.429881 -14.29451 18.00319 -2.199958 0.2006939 13.31783 -2.291021 8.422612 -4.697467 -3.611118 15.92895 10.16919 11.80717 -14.40821 -1.370333 0.7703573 -26.03038 7.577638 82.07976 38.8942 -4.136129 -0 0 33.39516 -13.56475 5.038392 2.311149 7.011385 -28.21557 -5.773749 -93.56317 -2.180331 41.75278 0 0 -7.724909 9.687463 2.5879 9.366536
-194.6977 121.6387 923.351 -32.95571 -15.77494 -66.92151 7.525317 16.80599 -18.30593 -0 33.9142 -0 -35.42505 -2.492612 4.373431 0.8326122 16.35267 -22.13655 -0 19.60948 -0 -3.923901 -14.45161 17.6759 -2.191367 0.209111 13.39032 -2.349198 8.191515 -4.726945 -3.609572 15.80661 10.28613 11.85546 -14.49357 -1.294147 0.6110281 -25.9788 7.41444 82.1462 39.15772 -4.074488 -0 0 33.50722 -13.52131 5.10527 2.159103 7.221751 -28.3174 -5.404972 -93.47108 -2.273785 41.73559 0 0 -8.01458 9.689298 2.626655 9.573032
-199.4267 121.2251 926.6915 -33.64676 -15.3736 -67.82755 7.826417 15.8202 -18.50972 -0 33.33938 -0 -35.55332 -2.93239 4.11972 1.037963 16.69476 -21.67561 -0 20.59699 -0 -3.119729 -14.32051 17.3405 -2.180262 0.2119886 13.44611 -2.394057 8.005587 -4.754348 -3.605767 15.71128 10.37993 11.88719 -14.56815 -1.224 0.4791542 -25.93778 7.286249 82.20611 39.35737 -4.034816 -0 0 33.5926 -13.49592 5.170578 2.036265 7.397073 -28.3998 -5.093318 -93.40289 -2.340564 41.71528 0 0 -8.237357 9.693076 2.676339 9.726072
-204.2336 120.7999 929.9886 -34.34387 -14.87526 -68.77094 8.165116 14.91177 -18.29474 -0 32.99039 -0 -35.38642 -3.444893 3.553172 1.300016 16.86162 -21.01997 -0 21.67147 -0 -2.048026 -13.90577 17.01375 -2.167653 0.2107973 13.48205 -2.423066 7.87517 -4.777955 -3.600282 15.64867 10.44488 11.90138 -14.62722 -1.165435 0.3804542 -25.90915 7.199367 82.25942 39.48366 -4.021769 -0 0 33.64339 -13.48766 5.225724 1.94757 7.525326 -28.45882 -4.860652 -93.35957 -2.376927 41.69111 0 0 -8.387511 9.698334 2.730628 9.81803
